# xmcd
#
# Track frame offsets:
#	182
#	14250
#	33350
#	46750
#	65040
#	82072
#	97602
#	112560
#	129690
#	151420
#	170897
#
# Disc length: 2532 seconds
#
# Revision: 2
# Processed by: cddbd v1.5.2PL0 Copyright (c) Steve Scherf et al.
# Submitted via: audiograbber 1.83.01
#
DISCID=8209e20b
DTITLE=Karen Staley - Fearless
DYEAR=1998
DGENRE=Country
TTITLE0=Fearless
TTITLE1=That's The Bad Thing About A Good Memory
TTITLE2=Hindsight Is 20/20
TTITLE3=Somebody's Child
TTITLE4=Cross The Battleline
TTITLE5=Can't Get Enuff
TTITLE6=Breakin' All The Rules
TTITLE7=Half Over You
TTITLE8=Wicked Ways
TTITLE9=With You
TTITLE10=God Is In Control
EXTD=YEAR: 1998 ID3G:   2
EXTT0=
EXTT1=
EXTT2=
EXTT3=
EXTT4=
EXTT5=
EXTT6=
EXTT7=
EXTT8=
EXTT9=
EXTT10=
PLAYORDER=
